#!OML:ASF I:\golf\golf\golf 2\Subject 1\2002-09-07\Subject1.ASF
:FULLY-SPECIFIED
:DEGREES
338
root -0.238543 18.1088 -3.59872 41.8846 25.5365 10.7928
lowerback 27.3807 2.25651 5.43934
upperback 9.48835 5.10378 8.57588
thorax -4.85363 2.48482 4.79261
lowerneck -16.4548 -11.7285 -2.78868
upperneck -6.34738 -15.3029 7.25701
head 1.52362 -7.57069 1.74939
rclavicle -6.04305e-014 2.62396e-014
rhumerus -6.77336 15.684 -60.6126
rradius 28.5799
rwrist -13.9122
rhand -19.2358 9.48628
rfingers 7.12502
rthumb 7.0775 -20.3754
lclavicle -6.04305e-014 2.62396e-014
lhumerus -24.7225 -23.4698 98.2024
lradius 71.3811
lwrist 10.8796
lhand -11.6116 29.7197
lfingers 7.12502
lthumb 14.4312 59.1979
rfemur -58.7163 -6.51883 17.9761
rtibia 32.4641
rfoot -8.11847 -8.92482
rtoes 21.6296
lfemur -35.0588 -1.67816 -17.7726
ltibia 28.6212
lfoot -12.4835 -4.40188
ltoes -17.1383
339
root -0.222393 18.0992 -3.61192 41.2046 25.497 10.2995
lowerback 26.9536 2.2381 5.3319
upperback 9.33938 5.02135 8.54579
thorax -4.81747 2.44638 4.85334
lowerneck -16.6944 -11.6901 -2.92149
upperneck -6.45016 -15.2125 7.47628
head 1.55822 -7.51159 1.83593
rclavicle -6.36111e-015 -6.36111e-015
rhumerus -7.52145 15.2261 -61.2292
rradius 28.853
rwrist -14.176
rhand -18.8449 9.54201
rfingers 7.12502
rthumb 7.45488 -20.3066
lclavicle -6.36111e-015 -6.36111e-015
lhumerus -24.8066 -23.0779 98.0609
lradius 70.6761
lwrist 10.6786
lhand -11.7191 29.7363
lfingers 7.12502
lthumb 14.3277 59.2219
rfemur -58.2129 -6.34396 18.356
rtibia 32.3679
rfoot -7.96493 -8.74175
rtoes 21.0833
lfemur -35.4703 -1.59017 -17.6813
ltibia 28.9639
lfoot -13.0724 -4.216
ltoes -18.9593
340
root -0.205665 18.0997 -3.6207 40.4322 25.492 9.71111
lowerback 26.4878 2.19476 5.29759
upperback 9.23764 4.92161 8.55444
thorax -4.70397 2.40118 4.92292
lowerneck -16.9393 -11.6557 -2.98926
upperneck -6.57673 -15.1372 7.55649
head 1.56637 -7.46559 1.86896
rclavicle -1.90833e-014 4.92986e-014
rhumerus -8.22613 15.0517 -61.758
rradius 29.2149
rwrist -14.7749
rhand -18.5188 9.38262
rfingers 7.12502
rthumb 7.76959 -20.4546
lclavicle -1.90833e-014 4.92986e-014
lhumerus -24.7731 -22.6377 97.8822
lradius 69.8291
lwrist 10.5152
lhand -11.6953 29.2362
lfingers 7.12502
lthumb 14.3506 58.7202
rfemur -57.6244 -6.21886 18.9023
rtibia 32.2677
rfoot -7.89971 -8.51625
rtoes 20.7086
lfemur -35.8133 -1.47982 -17.445
ltibia 29.3346
lfoot -13.5915 -4.26662
ltoes -19.8718
341
root -0.187514 18.102 -3.62845 39.6999 25.4018 9.17729
lowerback 25.9811 2.18725 5.11113
upperback 9.08021 4.83273 8.5728
thorax -4.64576 2.3592 5.08589
lowerneck -16.7944 -11.6023 -3.03112
upperneck -6.87855 -15.0421 7.5811
head 1.44115 -7.42386 1.90982
rclavicle 1.59028e-014 -8.5875e-014
rhumerus -9.01076 15.1244 -62.2711
rradius 29.5574
rwrist -15.4346
rhand -18.4378 9.27107
rfingers 7.12502
rthumb 7.84776 -20.5633
lclavicle 1.59028e-014 -8.5875e-014
lhumerus -24.8881 -22.0569 97.7571
lradius 68.9831
lwrist 10.2426
lhand -11.5187 28.8643
lfingers 7.12502
lthumb 14.5208 58.3361
rfemur -57.1115 -6.11901 19.3739
rtibia 32.2828
rfoot -7.97681 -8.25568
rtoes 20.4971
lfemur -36.1132 -1.40626 -17.2515
ltibia 29.6399
lfoot -13.7964 -4.45113
ltoes -18.7623
342
root -0.166195 18.0991 -3.63926 39.0731 25.1926 8.83669
lowerback 25.5699 2.16218 4.83389
upperback 8.77384 4.71481 8.49047
thorax -4.79458 2.30038 5.19078
lowerneck -16.3911 -11.5146 -3.1995
upperneck -7.06508 -14.8894 7.71559
head 1.33205 -7.34867 2.01943
rclavicle 5.725e-014 2.8625e-014
rhumerus -9.99232 15.1134 -62.8813
rradius 29.8612
rwrist -15.7943
rhand -18.3269 9.20209
rfingers 7.12502
rthumb 7.95487 -20.6282
lclavicle 5.725e-014 2.8625e-014
lhumerus -25.3214 -21.376 97.6944
lradius 68.2024
lwrist 9.76389
lhand -11.3905 28.9403
lfingers 7.12502
lthumb 14.6443 58.4032
rfemur -56.6394 -6.06985 19.6032
rtibia 32.2901
rfoot -8.05374 -7.93838
rtoes 20.3962
lfemur -36.4162 -1.33841 -17.3165
ltibia 29.9574
lfoot -14.0011 -4.5846
ltoes -17.9372
